# xmcd
#
# Track frame offsets: 
#        150
#        13300
#        25377
#        38207
#        51235
#        64130
#        76712
#        90652
#        103440
#        113325
#        124105
#        135590
#        145855
#        157455
#        168342
#        181157
#        193735
#        203605
#        214632
#        227612
#        242947
#        256810
#        269657
#        282857
#        309260
#
# Disc length: 4484 seconds
#
# Revision: 7
# Processed by: cddbd v1.5.2PL0 Copyright (c) Steve Scherf et al.
# Submitted via: ExactAudioCopy v0.95b4
#
DISCID=66118219
DTITLE=Howlin' Wolf - The Genuine Article (1951-70) (1997 Chess 32 bit
DTITLE=Remaster)
DYEAR=1997
DGENRE=Blues
TTITLE0=Moanin' At Midnight
TTITLE1=How Many More Years
TTITLE2=I'm The Wolf
TTITLE3=Baby How Long
TTITLE4=Evil (Is Going On)
TTITLE5=Forty Four
TTITLE6=Smokestack Lightnin'
TTITLE7=I Asked For Water
TTITLE8=The Natchez Burnin'
TTITLE9=Who's Been Talkin'
TTITLE10=Sittin' On Top Of The World
TTITLE11=I've Been Abused
TTITLE12=Howlin' For My Baby
TTITLE13=Wang Dang Doodle
TTITLE14=Back Door Man
TTITLE15=Spoonful
TTITLE16=Down In The Bottom
TTITLE17=The Red Rooster
TTITLE18=I Ain't Superstitious
TTITLE19=Goin' Down Slow
TTITLE20=300 Pounds Of Joy
TTITLE21=Killing Floor
TTITLE22=Dust My Broom
TTITLE23=Ain't Goin' Down That Dirt Road
TTITLE24=The Red Rooster
EXTD=
EXTT0=
EXTT1=
EXTT2=
EXTT3=
EXTT4=
EXTT5=
EXTT6=
EXTT7=
EXTT8=
EXTT9=
EXTT10=
EXTT11=
EXTT12=
EXTT13=
EXTT14=
EXTT15=
EXTT16=
EXTT17=
EXTT18=
EXTT19=
EXTT20=
EXTT21=
EXTT22=
EXTT23=
EXTT24=
PLAYORDER=
